<?xml version="1.0" encoding="utf-8"?>
<!-- Generator: Adobe Illustrator 27.9.0, SVG Export Plug-In . SVG Version: 6.00 Build 0)  -->
<svg version="1.1"
	 id="svg5" xmlns:sodipodi="http://sodipodi.sourceforge.net/DTD/sodipodi-0.dtd" xmlns:svg="http://www.w3.org/2000/svg" xmlns:inkscape="http://www.inkscape.org/namespaces/inkscape" inkscape:version="1.1 (c68e22c387, 2021-05-23)" sodipodi:docname="javascript_object_slight_buffer.svg"
	 xmlns="http://www.w3.org/2000/svg" xmlns:xlink="http://www.w3.org/1999/xlink" x="0px" y="0px" viewBox="0 0 610.6 299"
	 style="enable-background:new 0 0 610.6 299;" xml:space="preserve">
<style type="text/css">
	.st0{fill:#FFFFFF;}
	.st1{font-family:'CourierNewPS-BoldMT';}
	.st2{font-size:29.9999px;}
	.st3{fill:#9D0000;}
	.st4{fill:#6A016C;}
	.st5{fill:#004D00;}
	.st6{fill:none;stroke:#000000;stroke-width:1.4028;stroke-miterlimit:11.3386;}
	.st7{fill:none;stroke:#000000;stroke-width:1.3905;stroke-miterlimit:11.3386;}
	.st8{fill:none;stroke:#000000;stroke-width:1.2858;stroke-miterlimit:11.3386;}
	.st9{fill:none;stroke:#000000;stroke-width:1.2745;stroke-miterlimit:11.3386;}
	.st10{font-family:'Helvetica';}
	.st11{font-size:24px;}
	.st12{fill:none;stroke:#000000;stroke-width:1.885;stroke-miterlimit:11.3386;}
	.st13{fill:none;stroke:#000000;stroke-width:1.6016;stroke-miterlimit:11.3386;}
</style>
<sodipodi:namedview  bordercolor="#cccccc" borderopacity="1" id="namedview7" inkscape:current-layer="layer1" inkscape:cx="532" inkscape:cy="212" inkscape:document-units="mm" inkscape:pagecheckerboard="0" inkscape:pageopacity="1" inkscape:pageshadow="0" inkscape:window-height="986" inkscape:window-maximized="1" inkscape:window-width="1920" inkscape:window-x="-11" inkscape:window-y="1006" inkscape:zoom="4" pagecolor="#ffffff" showgrid="false">
	</sodipodi:namedview>
<rect class="st0" width="610.6" height="299"/>
<g id="layer1" transform="translate(2.3070363,-43.494454)" inkscape:groupmode="layer" inkscape:label="Layer 1">
	<text transform="matrix(1 0 0 1 3.6012 148.4026)" class="st1 st2">let  </text>
	<text transform="matrix(1 0 0 1 71.9644 147.3265)" class="st3 st1 st2">spaceship</text>
	<text transform="matrix(1 0 0 1 250.6773 148.4026)" class="st1 st2">= {</text>
	<text transform="matrix(1 0 0 1 43.2789 201.3538)" class="st4 st1 st2">&apos;Fuel Type&apos;</text>
	<text transform="matrix(1 0 0 1 43.2789 238.8538)" class="st4 st1 st2">color</text>
	<text transform="matrix(1 0 0 1 236.3189 201.8831)" class="st1 st2">:</text>
	<text transform="matrix(1 0 0 1 402.4166 205.4886)" class="st1 st2">,</text>
	<text transform="matrix(1 0 0 1 132.8961 238.4925)" class="st1 st2">:</text>
	<text transform="matrix(1 0 0 1 267.0777 204.0062)" class="st5 st1 st2">&apos;diesel&apos;</text>
	<text transform="matrix(1 0 0 1 159.026 240.3109)" class="st5 st1 st2">&apos;silver&apos;</text>
	<text transform="matrix(1 0 0 1 4.233 293.7034)" class="st1 st2">};</text>
	<path id="path85480-6" class="st6" d="M227,248.6v41.6"/>
	<path id="path85484-6" class="st7" d="M227,248.6l9,12"/>
	<path id="path85488-3" class="st7" d="M227,248.6l-8.9,11.8"/>
	<path id="path85480-6-7" class="st6" d="M88.5,248.7v41.6"/>
	<path id="path85484-6-8" class="st7" d="M88.5,248.7l9,12"/>
	<path id="path85488-3-4" class="st7" d="M88.5,248.7l-8.9,11.8"/>
	<path id="path85480-9" class="st8" d="M144.8,124.3V89.4"/>
	<path id="path85484-7" class="st9" d="M144.8,124.3l9.1-10.1"/>
	<path id="path85488-35" class="st9" d="M144.8,124.3l-8.9-9.9"/>
	<text transform="matrix(1 0 0 1 108.483 76.9534)" class="st10 st11">object</text>
	<text transform="matrix(1 0 0 1 60.899 311.5921)" class="st10 st11">keys</text>
	<text transform="matrix(1 0 0 1 190.525 312.6722)" class="st10 st11">values</text>
	<text transform="matrix(1 0 0 1 477.8814 217.3265)" class="st10 st11">properties</text>
	<path id="path94312" class="st12" d="M415.2,170h34.5v76.5h-34.5"/>
	<path id="path94314" class="st13" d="M450.5,209.7H473"/>
</g>
</svg>
