<?xml version="1.0" encoding="utf-8"?>
<!-- Generator: Adobe Illustrator 27.9.0, SVG Export Plug-In . SVG Version: 6.00 Build 0)  -->
<svg version="1.1" xmlns="http://www.w3.org/2000/svg" xmlns:xlink="http://www.w3.org/1999/xlink" x="0px" y="0px"
	 viewBox="0 0 2043 770.4" style="enable-background:new 0 0 2043 770.4;" xml:space="preserve">
<style type="text/css">
	.st0{fill:#FFFFFF;}
	.st1{fill:#3A10E5;}
	.st2{fill:#A2A2A6;}
	.st3{fill:#CCA900;}
	.st4{fill:#10162F;}
</style>
<g id="Layer_2">
	<rect class="st0" width="2043" height="770.4"/>
</g>
<g id="Layer_1">
	<path class="st1" d="M157.4,413.5c-7.1,0-12.8-1.2-17.1-3.6l1.2-8.7c2.4,1.2,4.8,2.2,7.4,2.8c2.7,0.8,5.4,1.2,8.2,1.2
		c2.1,0.1,4.2-0.4,6-1.4c1.4-0.9,2.2-2.5,2.2-4.2c0.1-1.6-0.7-3.1-2-4c-2.4-1.5-5-2.7-7.6-3.6c-1.3-0.5-2.1-0.8-2.5-0.9
		c-4.4-1.7-7.7-3.7-9.6-5.8c-2-2.1-2.9-5-2.9-8.6c0-4.4,1.6-7.8,4.8-10.1c3.2-2.3,7.6-3.5,13.3-3.5c5.6-0.1,11.2,1.1,16.2,3.5
		l-2.9,8c-4.1-2-8.6-3.1-13.1-3.2c-1.9-0.1-3.7,0.3-5.4,1.2c-1.3,0.7-2.1,2.1-2,3.5c0,1.4,0.7,2.8,1.9,3.5c2.3,1.3,4.8,2.4,7.4,3.3
		c0.1,0,0.5,0.2,1.1,0.4s1.1,0.4,1.5,0.6c4.4,1.6,7.7,3.5,9.8,5.8c2.1,2.4,3.3,5.6,3.1,8.8c0,4.8-1.6,8.6-4.9,11.2
		C168,412.1,163.4,413.5,157.4,413.5L157.4,413.5z"/>
	<path class="st1" d="M188,432.6v-68.4h9.9l1.2,6.8c1.5-2.5,3.7-4.5,6.3-5.9c2.7-1.4,5.7-2.1,8.8-2.1c3.7-0.1,7.4,1.1,10.4,3.3
		c3.1,2.3,5.4,5.4,6.8,9c1.6,4.1,2.4,8.5,2.3,12.9c0,7.5-1.8,13.6-5.4,18.3c-3.4,4.6-8.9,7.3-14.7,7c-2.9,0-5.7-0.6-8.3-1.8
		c-2.4-1.2-4.5-2.9-6.2-5c0.2,4.2,0.3,6.6,0.4,7.1v18.2L188,432.6z M211.2,404.7c3.3,0.1,6.3-1.6,8.1-4.3c2-2.9,3-7,3-12.3
		s-1-9.4-3-12.2c-1.9-2.7-5-4.2-8.3-4.1c-7.6,0-11.5,5.2-11.6,15.5c0,6,1,10.4,3,13.2C204.5,403.3,207.4,404.7,211.2,404.7
		L211.2,404.7z"/>
	<path class="st1" d="M258.5,413.5c-4.5,0-8.1-1.2-10.9-3.7c-2.8-2.5-4.2-6-4.1-10.7c0-5,1.6-8.7,4.9-11.1c3.3-2.4,8.2-4,14.8-4.6
		l3-0.4l3.6-0.4c1.3-0.1,2.4-0.2,3.1-0.3v-2.5c0-2.9-0.7-5.1-2-6.4s-3.4-2-6.2-2c-3.9,0-8.8,1.1-14.5,3.3c0-0.1-0.5-1.4-1.4-4
		s-1.4-3.9-1.4-4c5.8-2.5,12.1-3.7,18.5-3.6c6.5,0,11.2,1.4,14.2,4.2c3,2.8,4.4,7.4,4.4,13.7v31.5h-8.5c0-0.1-0.4-1.1-1-3
		s-0.9-2.8-0.9-2.9c-2,2.1-4.4,3.8-7,5.2C264.2,413,261.4,413.6,258.5,413.5L258.5,413.5z M261.6,405.3c2.5,0.1,4.9-0.6,7-1.9
		c1.8-1.1,3.3-2.7,4.2-4.6v-9.3l-2.3,0.2c-1.5,0.1-2.2,0.2-2.4,0.2c-4.7,0.4-8.1,1.3-10.2,2.6c-2.2,1.4-3.2,3.5-3.3,6.5
		c-0.1,1.8,0.5,3.5,1.8,4.7C257.9,404.8,259.8,405.4,261.6,405.3L261.6,405.3z"/>
	<path class="st1" d="M319.8,413.5c-7.4,0-13.1-2.2-17.2-6.6c-4.1-4.4-6.2-10.7-6.2-18.9c0-7.9,2.2-14.1,6.5-18.4
		c4.3-4.4,10-6.6,17.1-6.5c5-0.2,10,1.1,14.3,3.6l-2.7,8.3c-3.4-1.9-7.2-3-11.1-3.1c-3.6-0.2-7,1.4-9.2,4.2
		c-2.2,2.8-3.4,6.9-3.4,12.2s1.1,9.4,3.3,12.3c2.3,2.8,5.8,4.4,9.4,4.2c4.3,0,8.6-1.3,12.2-3.8l1.1,8.7c-1.9,1.3-4,2.3-6.3,2.9
		C325,413.3,322.4,413.5,319.8,413.5L319.8,413.5z"/>
	<path class="st1" d="M367.6,413.5c-7.8,0-13.8-2.2-18.1-6.7c-4.3-4.5-6.5-10.6-6.5-18.5c0-7.7,2-13.8,6.1-18.3
		c4.1-4.5,9.6-6.8,16.6-6.9c6.7,0,11.8,2.1,15.5,6.2c3.7,4.2,5.5,9.7,5.5,16.6v2.4c0,0,0,1.9,0,2.5h-32.2c0.1,4.5,1.4,8,3.7,10.5
		c2.4,2.5,5.6,3.7,9.7,3.8c5.3,0,10.6-1.4,15.2-4.1l1.6,8.2C379.6,412.1,373.6,413.7,367.6,413.5L367.6,413.5z M354.8,383.5h21.1
		c0-3.9-0.9-6.9-2.7-9c-1.9-2.1-4.6-3.3-7.4-3.2c-2.8-0.1-5.5,1.1-7.5,3.1C356.3,376.4,355.1,379.5,354.8,383.5L354.8,383.5z"/>
	<path class="st1" d="M414.2,413.5c-7.1,0-12.8-1.2-17.1-3.6l1.2-8.7c2.3,1.2,4.8,2.2,7.4,2.8c2.7,0.8,5.4,1.2,8.2,1.2
		c2.1,0.1,4.2-0.4,6-1.4c1.4-0.9,2.2-2.5,2.2-4.2c0.1-1.6-0.7-3.1-2-4c-2.4-1.5-5-2.7-7.6-3.6c-1.3-0.5-2.1-0.8-2.5-0.9
		c-4.4-1.7-7.7-3.7-9.6-5.8c-2-2.1-3-5-3-8.6c0-4.4,1.6-7.8,4.8-10.1c3.2-2.3,7.6-3.5,13.3-3.5c5.6-0.1,11.2,1.1,16.2,3.5l-2.9,8
		c-4.1-2-8.6-3.1-13.1-3.2c-1.9-0.1-3.8,0.3-5.4,1.2c-1.3,0.7-2.1,2.1-2,3.5c0,1.4,0.7,2.8,1.9,3.5c2.3,1.3,4.8,2.4,7.4,3.3
		c0.1,0,0.5,0.2,1.1,0.4s1.1,0.4,1.5,0.6c4.4,1.6,7.7,3.5,9.8,5.8c2.1,2.4,3.3,5.6,3.1,8.8c0,4.8-1.6,8.6-4.9,11.2
		S420.2,413.4,414.2,413.5L414.2,413.5z"/>
	<path class="st1" d="M444.8,412.6v-66.1l11.5-0.7v13.9c0,0.7,0,2.5-0.1,5.6s-0.1,4.6-0.1,4.7c3.8-4.6,9-6.9,15.5-6.9
		c5.4,0,9.6,1.5,12.5,4.6c3,3.1,4.5,7.9,4.5,14.3v30.6H477v-29.3c0-4-0.6-6.9-1.9-8.7s-3.4-2.8-6.4-2.8c-2.4,0-4.8,0.6-6.9,2
		c-1.9,1.2-3.5,3-4.5,5c-0.8,3.5-1.1,7-1,10.5v23.2L444.8,412.6z"/>
	<path class="st1" d="M502.8,357.2v-9.8h11.6v9.8H502.8z M502.8,412.6v-48.3h11.5v48.3H502.8z"/>
	<path class="st1" d="M529,432.6v-68.4h9.9l1.2,6.8c1.5-2.5,3.7-4.5,6.3-5.9c2.7-1.4,5.7-2.1,8.8-2.1c3.7-0.1,7.4,1.1,10.4,3.3
		c3.1,2.3,5.4,5.4,6.8,9c1.6,4.1,2.4,8.5,2.3,12.9c0,7.5-1.8,13.6-5.4,18.3c-3.4,4.6-8.9,7.3-14.7,7c-2.9,0-5.7-0.6-8.3-1.8
		c-2.4-1.2-4.5-2.9-6.2-5c0.2,4.2,0.4,6.6,0.4,7.1v18.2L529,432.6z M552.2,404.7c3.3,0.1,6.3-1.6,8.1-4.3c2-2.9,3-7,3-12.3
		s-1-9.4-3-12.2c-1.9-2.7-5-4.2-8.3-4.1c-7.6,0-11.5,5.2-11.6,15.5c0,6,1,10.4,3,13.2S548.4,404.7,552.2,404.7L552.2,404.7z"/>
	<path class="st2" d="M613.5,424.3v-77.9h20.4v7.9h-9.3v62h9.3v8L613.5,424.3z"/>
	<path class="st3" d="M641.5,369.8l4.8-21.7h9.6l-7,21.7H641.5z"/>
	<path class="st3" d="M667.9,412.6v-64.4H706l-0.4,9.5h-25.8v18.3h24.6v9.4h-24.6v27.3H667.9z"/>
	<path class="st3" d="M752.8,408.8c-3.8,3.2-8.9,4.7-15.2,4.7s-11.3-1.6-15.1-4.7c-3.8-3.1-5.7-7.7-5.7-13.8v-30.7h11.6v30.3
		c0,3.6,0.8,6.2,2.3,7.8c1.5,1.6,3.9,2.4,7.2,2.4s5.6-0.8,7-2.4s2.2-4.2,2.2-7.8v-30.3h11.5V395C758.6,401,756.7,405.6,752.8,408.8
		L752.8,408.8z"/>
	<path class="st3" d="M794.1,413.5c-7.8,0-13.8-2.2-18.1-6.7c-4.3-4.5-6.5-10.6-6.5-18.5c0-7.7,2-13.8,6.1-18.3
		c4.1-4.5,9.6-6.8,16.7-6.9c6.7,0,11.8,2.1,15.5,6.2c3.7,4.2,5.5,9.7,5.5,16.6v2.4c0,0,0,1.9,0,2.5h-32.2c0.1,4.5,1.4,8,3.7,10.5
		c2.4,2.5,5.6,3.7,9.7,3.7c5.3,0,10.6-1.4,15.2-4.1l1.6,8.2C806.2,412.1,800.2,413.7,794.1,413.5L794.1,413.5z M781.4,383.5h21.1
		c0-3.9-0.9-6.9-2.7-9c-1.9-2.1-4.6-3.3-7.4-3.2c-2.8-0.1-5.5,1.1-7.5,3.1C782.8,376.4,781.6,379.5,781.4,383.5L781.4,383.5z"/>
	<path class="st3" d="M842.3,413.2c-2.8,0.1-5.6-0.3-8.2-1.2c-2.1-0.7-3.9-2-5.2-3.7c-1.3-1.8-2.2-3.9-2.6-6.1
		c-0.5-2.9-0.8-5.8-0.8-8.7v-47.1l11.5-0.7v47.6c0,4.3,0.5,7.3,1.5,8.8s3,2.3,6,2.3c1.9,0,3.7-0.2,5.6-0.5l0.3,8.2l-1.1,0.2
		c-0.7,0.1-1.3,0.3-2,0.4s-1.4,0.2-2.4,0.3C844.1,413.2,843.2,413.2,842.3,413.2L842.3,413.2z"/>
	<path class="st3" d="M898.8,412.6v-54.9h-18.8v-9.5h49.4v9.5h-18.7v54.9H898.8z"/>
	<path class="st3" d="M941.2,432.9c-2,0-4-0.1-6-0.4l-0.6-8.9c1.7,0.2,3.4,0.2,5.1,0.2c4.8,0.5,9.2-2.6,10.4-7.2
		c0.1-0.3,0.7-1.9,1.8-5l-19.4-47.4h12.3l12.7,35c0.9-3.5,3-10,6.3-19.4c3.3-9.5,5.1-14.7,5.4-15.6h12.3
		c-13.4,35.4-20.1,53.2-20.3,53.5c-2.1,5.4-4.7,9.3-7.9,11.6C950.2,431.7,946.1,432.9,941.2,432.9L941.2,432.9z"/>
	<path class="st3" d="M990.4,432.6v-68.4h9.9l1.2,6.8c1.5-2.5,3.7-4.5,6.3-5.9c2.7-1.4,5.7-2.1,8.8-2.1c3.7-0.1,7.4,1.1,10.4,3.3
		c3.1,2.3,5.4,5.4,6.8,9c1.6,4.1,2.4,8.5,2.3,12.9c0,7.5-1.8,13.6-5.4,18.3c-3.4,4.6-8.9,7.3-14.7,7c-2.9,0-5.7-0.6-8.3-1.8
		c-2.4-1.2-4.5-2.9-6.2-5c0.2,4.2,0.3,6.6,0.3,7.1v18.2L990.4,432.6z M1013.6,404.7c3.3,0.1,6.3-1.6,8.1-4.3c2-2.9,3-7,3-12.3
		s-1-9.4-3-12.2c-1.9-2.7-5-4.2-8.3-4.1c-7.6,0-11.5,5.2-11.6,15.5c0,6,1,10.4,3,13.2C1006.8,403.3,1009.7,404.7,1013.6,404.7
		L1013.6,404.7z"/>
	<path class="st3" d="M1070.6,413.5c-7.8,0-13.8-2.2-18.1-6.7c-4.3-4.5-6.5-10.6-6.5-18.5c0-7.7,2-13.8,6.1-18.3
		c4.1-4.5,9.6-6.8,16.7-6.9c6.7,0,11.8,2.1,15.5,6.2c3.7,4.2,5.5,9.7,5.5,16.6v2.4c0,0,0,1.9,0,2.5h-32.1c0.1,4.5,1.3,8,3.7,10.5
		c2.4,2.5,5.6,3.7,9.6,3.8c5.3,0,10.6-1.4,15.2-4.1l1.6,8.2C1082.6,412.1,1076.6,413.7,1070.6,413.5L1070.6,413.5z M1057.8,383.5
		h21.1c0-3.9-0.9-6.9-2.7-9c-1.9-2.1-4.6-3.3-7.4-3.2c-2.8-0.1-5.5,1.1-7.5,3.1C1059.2,376.4,1058.1,379.5,1057.8,383.5
		L1057.8,383.5z"/>
	<path class="st3" d="M1098.6,369.8l4.7-21.7h9.6l-7,21.7H1098.6z"/>
	<path class="st2" d="M1120.4,424.3v-8h9.3v-62h-9.3v-7.9h20.4v77.9H1120.4z"/>
	<path class="st2" d="M1180,379.4V371h44.7v8.5L1180,379.4z M1180,396.9v-8.4h44.7v8.4H1180z"/>
	<path class="st2" d="M1274.8,348.1l-4.8,21.7h-9.6l7-21.7H1274.8z"/>
	<path class="st2" d="M1299.4,412.6l-19.2-48.3h12.2c0.5,1.3,1.9,5.4,4.5,12.3c2.5,6.9,4.2,11.5,5,14c1.7,4.9,2.9,8.5,3.6,11
		c1.1,3.7,0.2-1,0.7-2.9s1-3.6,1.4-5.3s0.7-2.7,0.9-3c0-0.1,1.3-4.1,4-12.1s4.2-12.7,4.7-14.1h12.1l-18.3,48.4H1299.4z"/>
	<path class="st2" d="M1360,413.5c-7.8,0-13.8-2.2-18.1-6.7c-4.3-4.5-6.5-10.6-6.5-18.5c0-7.7,2-13.8,6.1-18.3
		c4.1-4.5,9.6-6.8,16.7-6.9c6.7,0,11.8,2.1,15.5,6.2c3.7,4.2,5.5,9.7,5.5,16.6v2.4c0,0,0,1.9,0,2.5H1347c0.1,4.5,1.4,8,3.7,10.5
		c2.4,2.5,5.6,3.7,9.7,3.7c5.3,0,10.6-1.4,15.2-4.1l1.6,8.2C1372.1,412.1,1366.1,413.7,1360,413.5L1360,413.5z M1347.2,383.5h21.1
		c0-3.9-0.9-6.9-2.7-9c-1.9-2.1-4.6-3.3-7.4-3.2c-2.8-0.1-5.5,1.1-7.5,3.1C1348.7,376.4,1347.5,379.5,1347.2,383.5L1347.2,383.5z"/>
	<path class="st2" d="M1400.9,434.2l-0.7-9.3h5.8c6.8,0,11.5-0.9,14.2-2.7c2.7-1.8,4-5.1,4-9.9c0-2-0.1-4.1-0.3-6.4
		c-0.7,0.9-1.4,1.8-2.2,2.6c-0.8,0.8-1.7,1.5-2.6,2c-1.1,0.7-2.4,1.2-3.7,1.5c-1.6,0.4-3.3,0.5-4.9,0.5c-6,0.2-11.8-2.4-15.8-6.9
		c-4.1-4.6-6.2-10.5-6.2-17.8c0-3.6,0.5-7.2,1.7-10.6c1-2.9,2.6-5.6,4.7-7.8c3.9-4.1,9.3-6.4,15-6.4c6.5,0,11.3,2.4,14.4,7.1
		l0.8-5.9h10.3v44.9c0,2.2-0.1,4.3-0.3,6.5c-0.2,1.9-0.6,3.7-1.2,5.5c-0.5,1.7-1.3,3.2-2.3,4.6c-1,1.4-2.2,2.6-3.6,3.6
		c-1.5,1.1-3.3,2-5.1,2.7c-2.2,0.7-4.5,1.3-6.8,1.6c-2.9,0.4-5.8,0.6-8.7,0.5L1400.9,434.2z M1412.4,404.5c7.9,0,11.9-5.3,12-16
		v-1.6c-0.1-4.8-1.1-8.5-3-11.1c-1.9-2.6-4.8-3.9-8.5-4c-4.2,0-7.4,1.4-9.6,4.3s-3.2,6.8-3.2,11.7c-0.1,4.2,1,8.3,3.3,11.9
		C1405.3,402.8,1408.8,404.6,1412.4,404.5L1412.4,404.5z"/>
	<path class="st2" d="M1471.9,413.5c-7.8,0-13.8-2.2-18.1-6.7c-4.3-4.5-6.5-10.6-6.5-18.5c0-7.7,2-13.8,6.1-18.3
		c4.1-4.5,9.6-6.8,16.7-6.9c6.7,0,11.8,2.1,15.5,6.2c3.7,4.2,5.5,9.7,5.5,16.6v2.4c0,0,0,1.9,0,2.5h-32.2c0.1,4.5,1.4,8,3.7,10.5
		c2.4,2.5,5.6,3.7,9.7,3.7c5.3,0,10.6-1.4,15.2-4.1l1.6,8.2C1484,412.1,1478,413.7,1471.9,413.5L1471.9,413.5z M1459.1,383.5h21.1
		c0-3.9-0.9-6.9-2.7-9c-1.9-2.1-4.6-3.3-7.4-3.2c-2.8-0.1-5.5,1.1-7.5,3.1C1460.6,376.4,1459.4,379.5,1459.1,383.5L1459.1,383.5z"/>
	<path class="st2" d="M1522.4,413.2c-2.8,0.1-5.5-0.3-8.2-1.2c-2-0.7-3.8-2-5.1-3.7c-1.3-1.8-2.2-3.8-2.6-5.9
		c-0.6-2.8-0.8-5.6-0.8-8.4v-22.8h-7.9l0.4-6.2l8.3-0.8l3.7-13.1l7,0v13.1h12v7h-12v23c0,3.7,0.5,6.3,1.6,7.8s3,2.3,5.8,2.3
		c1.8,0,3.6-0.1,5.4-0.4l0.3,8.3c-0.1,0-0.4,0.1-1.1,0.2s-1.3,0.2-1.9,0.4s-1.4,0.2-2.3,0.3S1523.2,413.2,1522.4,413.2L1522.4,413.2
		z"/>
	<path class="st2" d="M1553.8,413.5c-4.5,0-8.1-1.2-10.9-3.7s-4.2-6-4.2-10.7c0-5,1.6-8.7,4.9-11.1c3.3-2.4,8.2-4,14.8-4.6l3-0.4
		l3.6-0.4c1.3-0.1,2.4-0.2,3.1-0.3v-2.5c0-2.9-0.7-5.1-2-6.4c-1.3-1.3-3.4-2-6.2-2c-3.9,0-8.8,1.1-14.6,3.3c0-0.1-0.5-1.4-1.4-4
		s-1.4-3.9-1.4-4c5.8-2.5,12.1-3.7,18.5-3.6c6.5,0,11.2,1.4,14.2,4.2c3,2.8,4.4,7.4,4.4,13.7v31.5h-8.5c0-0.1-0.3-1.1-1-3
		s-0.9-2.8-0.9-2.9c-2,2.1-4.4,3.8-7,5.2C1559.6,413,1556.7,413.6,1553.8,413.5L1553.8,413.5z M1556.9,405.3c2.5,0.1,4.9-0.6,7-1.9
		c1.8-1.1,3.3-2.7,4.2-4.6v-9.3l-2.3,0.2c-1.4,0.1-2.2,0.2-2.3,0.2c-4.7,0.4-8.1,1.3-10.2,2.6c-2.2,1.4-3.2,3.5-3.2,6.5
		c-0.1,1.8,0.5,3.5,1.8,4.7C1553.3,404.8,1555.1,405.4,1556.9,405.3z"/>
	<path class="st2" d="M1619.8,413.5c-3.1,0-6.2-0.7-8.9-2.2c-2.3-1.1-4.3-2.8-5.8-4.9l-1.1,6.1h-10v-66l11.5-0.7v14.9
		c0,2.9-0.1,6.2-0.3,9.9c3.4-4.8,9-7.6,14.9-7.5c6.2,0,11,2.3,14.5,6.9c3.5,4.6,5.2,10.5,5.2,17.9c0,7.7-1.8,13.9-5.4,18.6
		C1631,411.1,1625.5,413.7,1619.8,413.5z M1617.1,404.8c3.3,0.1,6.4-1.6,8.2-4.4c2-2.9,3.1-7,3.1-12.3c0-5.4-1-9.4-3-12.2
		c-1.8-2.7-4.9-4.2-8.2-4.1c-7.8,0-11.7,5.3-11.8,15.8c0,5.9,1,10.3,2.9,13C1610.3,403.4,1613.2,404.7,1617.1,404.8L1617.1,404.8z"
		/>
	<path class="st2" d="M1668.9,413.2c-2.8,0.1-5.6-0.3-8.2-1.2c-2.1-0.7-3.9-2-5.2-3.7c-1.3-1.8-2.2-3.9-2.6-6.1
		c-0.5-2.9-0.8-5.8-0.8-8.7v-47.1l11.5-0.7v47.6c0,4.3,0.5,7.3,1.5,8.8s3,2.3,6,2.3c1.9,0,3.7-0.2,5.6-0.5l0.3,8.2l-1.1,0.2
		c-0.7,0.1-1.3,0.3-2,0.4s-1.4,0.2-2.4,0.3C1670.7,413.2,1669.8,413.2,1668.9,413.2z"/>
	<path class="st2" d="M1707.5,413.5c-7.8,0-13.8-2.2-18.1-6.7c-4.3-4.5-6.5-10.6-6.5-18.5c0-7.7,2-13.8,6.1-18.3
		c4.1-4.5,9.6-6.8,16.7-6.9c6.7,0,11.8,2.1,15.5,6.2c3.7,4.2,5.5,9.7,5.5,16.6v2.4c0,0,0,1.9,0,2.5h-32.1c0.1,4.5,1.3,8,3.7,10.5
		c2.4,2.5,5.6,3.7,9.7,3.7c5.3,0,10.6-1.4,15.2-4.1l1.6,8.2C1719.6,412.1,1713.6,413.7,1707.5,413.5L1707.5,413.5z M1694.7,383.5
		h21.1c0-3.9-0.9-6.9-2.7-9c-1.9-2.1-4.6-3.3-7.4-3.2c-2.8-0.1-5.5,1.1-7.5,3.1C1696.1,376.4,1695,379.5,1694.7,383.5L1694.7,383.5z
		"/>
	<path class="st2" d="M1785.9,413.5c-7.2,0-12.8-2.3-16.9-6.9c-4.1-4.6-6.1-10.7-6.2-18.3c0-7.8,2.1-13.9,6.2-18.4
		c4.1-4.5,9.9-6.7,17.4-6.8c7.2,0,12.8,2.3,16.9,6.9s6.1,10.7,6.1,18.3c0,7.7-2.1,13.8-6.2,18.4
		C1799.1,411.2,1793.3,413.5,1785.9,413.5L1785.9,413.5z M1786.2,404.8c3.9,0,6.8-1.4,8.8-4.3c2-2.8,2.9-6.9,2.9-12.2
		c0-5.4-1-9.5-2.9-12.3s-4.9-4.2-8.9-4.2s-6.8,1.4-8.8,4.2s-3,6.9-3,12.3s1,9.3,3,12.2S1782.3,404.8,1786.2,404.8L1786.2,404.8z"/>
	<path class="st2" d="M1821.8,357.2v-9.8h11.6v9.8H1821.8z M1821.8,412.6v-48.3h11.5v48.3H1821.8z"/>
	<path class="st2" d="M1865,413.2c-2.8,0.1-5.6-0.3-8.2-1.2c-2.1-0.7-3.9-2-5.2-3.7c-1.3-1.8-2.2-3.9-2.6-6.1
		c-0.5-2.9-0.8-5.8-0.7-8.7v-47.1l11.5-0.7v47.6c0,4.3,0.5,7.3,1.5,8.8s3,2.3,6,2.3c1.9,0,3.7-0.2,5.6-0.5l0.3,8.2l-1.1,0.2
		c-0.7,0.1-1.3,0.3-2,0.4s-1.4,0.2-2.4,0.3C1866.8,413.2,1865.9,413.2,1865,413.2L1865,413.2z"/>
	<path class="st2" d="M1878.3,369.8l4.8-21.7h9.6l-7,21.7H1878.3z"/>
	<path class="st2" d="M1902.5,426.7l2.5-25h9.9l-5.4,25H1902.5z M1903.3,375.6V364h11.6v11.6L1903.3,375.6z"/>
	<g>
		<path class="st4" d="M289.9,228c-5.4,0-9.6-1.6-12.8-4.9s-4.7-7.8-4.7-13.5s1.6-10.3,4.7-13.5s7.4-4.9,12.8-4.9s9.6,1.6,12.7,4.9
			s4.7,7.8,4.7,13.5s-1.6,10.2-4.7,13.5S295.3,228,289.9,228z M282.1,219.2c1.8,2.3,4.4,3.4,7.9,3.4c3.5,0,6.1-1.1,7.9-3.4
			c1.8-2.2,2.6-5.4,2.6-9.6c0-4.1-0.9-7.3-2.6-9.7c-1.8-2.3-4.4-3.4-7.8-3.4s-6.1,1.1-7.9,3.4s-2.7,5.5-2.7,9.7
			S280.3,217,282.1,219.2L282.1,219.2z"/>
		<path class="st4" d="M313.6,227.5v-35.8h11.2c4.7,0,8.3,0.7,10.6,2.1s3.5,3.7,3.5,6.9c0,0.5,0,1-0.1,1.5c-0.1,0.6-0.2,1.2-0.4,1.7
			c-0.5,1.3-1.3,2.5-2.5,3.3c-0.7,0.5-1.5,0.9-2.3,1.2c2,0.4,3.8,1.5,5.1,3.1c1.2,1.6,1.8,3.6,1.8,5.6c0.2,3-1.2,5.9-3.6,7.7
			c-2.4,1.8-5.7,2.7-9.9,2.7L313.6,227.5z M320.2,206.5h5.7c4.4,0,6.6-1.7,6.6-5c0-1.9-0.6-3.1-1.9-3.9c-1.9-0.8-3.9-1.1-6-1h-4.3
			L320.2,206.5z M320.2,222.7h5.8c5.1,0,7.6-2,7.6-6c0.2-1.7-0.6-3.3-1.9-4.3c-1.3-0.9-3.2-1.3-5.9-1.3h-5.6L320.2,222.7z"/>
		<path class="st4" d="M340.5,235.4l-0.3-5.2c0.8,0.1,1.7,0.2,2.6,0.2c1.8,0,3-0.5,3.7-1.4c0.8-1.4,1.1-3,1-4.6v-32.7h6.6v32.3
			c0,1.7-0.1,3.5-0.5,5.2c-0.3,1.3-1,2.6-1.9,3.6c-0.9,1-2.1,1.8-3.5,2.2c-1.7,0.5-3.5,0.7-5.4,0.7
			C342.1,235.6,341.3,235.5,340.5,235.4L340.5,235.4z"/>
		<path class="st4" d="M361.6,227.5v-35.8h21.7L383,197h-14.8v9.2h14.1v5.2h-14v10.8h15.3l-0.2,5.3L361.6,227.5z"/>
		<path class="st4" d="M405.4,228c-5.2,0-9.4-1.6-12.4-4.9c-3.1-3.3-4.6-7.8-4.6-13.6c0-5.5,1.6-9.9,4.8-13.2
			c3.3-3.4,7.9-5.2,12.6-5c3.8-0.1,7.5,0.9,10.6,2.9l-2.1,5c-2.5-1.6-5.4-2.5-8.4-2.6c-3-0.1-5.9,1.2-7.8,3.6
			c-1.9,2.4-2.9,5.6-2.9,9.5c0,4.1,0.9,7.3,2.8,9.6c2,2.3,4.9,3.6,7.9,3.4c3.1,0,6.2-0.8,8.9-2.2l0.9,5.2
			C412.5,227.3,408.9,228.1,405.4,228L405.4,228z"/>
		<path class="st4" d="M428.4,227.5v-30.5H418v-5.3h27.4v5.3h-10.4v30.5H428.4z"/>
		<path class="st4" d="M713.4,179.5v-35.9h11.9c2.5-0.1,4.9,0.3,7.2,1.1c1.9,0.7,3.6,1.9,4.8,3.5c1.2,1.8,1.8,4,1.7,6.1
			c0,1.5-0.2,3.1-0.7,4.6c-0.4,1.4-1.2,2.6-2.2,3.6c-1.2,1.2-2.7,2-4.3,2.5c-2.2,0.6-4.4,0.9-6.6,0.9c-2.2,0-4-0.1-5.4-0.2v13.8
			L713.4,179.5z M724.6,161.2c1.2,0,2.4-0.1,3.5-0.4c0.8-0.2,1.6-0.5,2.3-1c0.6-0.4,1-0.9,1.3-1.5c0.3-0.5,0.5-1.1,0.7-1.8
			c0.1-0.6,0.2-1.3,0.2-1.9c0.1-1.7-0.6-3.4-1.9-4.5c-1.6-1.1-3.5-1.7-5.4-1.5h-5.4v12.5C720.1,161.2,721.7,161.2,724.6,161.2z"/>
		<path class="st4" d="M743.8,179.5v-35.9H757c1.6,0,3.1,0.1,4.7,0.2c1.3,0.2,2.6,0.5,3.8,0.9c1.1,0.4,2.1,1,2.9,1.8
			c0.8,0.8,1.4,1.8,1.8,2.9c0.5,1.3,0.7,2.8,0.7,4.2c0,4.8-2.2,7.9-6.5,9.4c1.3,1.7,2.4,3.6,3.3,5.5l5.3,11h-7.2l-4.2-9.4
			c-1.6-3.4-2.6-5.3-2.9-5.9c-0.3,0-1.2,0-2.8,0l-5.5-0.1v15.4H743.8z M757.6,159.4c2.5,0,4.4-0.5,5.5-1.4c1.2-1.1,1.8-2.7,1.7-4.4
			c0.1-1.5-0.5-2.9-1.7-3.9c-1.5-0.9-3.3-1.4-5.2-1.2h-7.6v10.8h3.7L757.6,159.4z"/>
		<path class="st4" d="M793.9,180c-5.4,0-9.6-1.6-12.8-4.9c-3.1-3.3-4.7-7.8-4.7-13.5c0-5.8,1.6-10.3,4.7-13.5
			c3.1-3.2,7.4-4.9,12.8-4.9c5.4,0,9.6,1.6,12.7,4.9s4.7,7.8,4.7,13.5c0,5.7-1.6,10.2-4.7,13.5C803.5,178.4,799.3,180,793.9,180z
			 M786.1,171.2c1.8,2.3,4.4,3.4,7.9,3.4c3.5,0,6.1-1.1,7.8-3.4c1.8-2.2,2.6-5.4,2.6-9.6s-0.9-7.3-2.6-9.7c-1.8-2.3-4.4-3.4-7.8-3.4
			s-6.1,1.1-7.9,3.4s-2.7,5.5-2.7,9.7S784.3,169,786.1,171.2L786.1,171.2z"/>
		<path class="st4" d="M817.4,179.5v-35.9h11.9c2.5-0.1,4.9,0.3,7.2,1.1c1.9,0.7,3.6,1.9,4.8,3.5c1.2,1.8,1.8,4,1.7,6.1
			c0,1.5-0.2,3.1-0.7,4.6c-1,3-3.4,5.3-6.4,6.1c-2.2,0.6-4.4,0.9-6.6,0.9c-2.2,0-4-0.1-5.4-0.2v13.8L817.4,179.5z M828.6,161.2
			c1.2,0,2.4-0.1,3.5-0.4c0.8-0.2,1.6-0.5,2.3-1c0.6-0.4,1-0.9,1.3-1.5c0.3-0.5,0.5-1.1,0.7-1.8c0.1-0.6,0.2-1.3,0.2-1.9
			c0.1-1.7-0.6-3.4-1.9-4.5c-1.6-1.1-3.5-1.7-5.4-1.5H824v12.5C824.1,161.2,825.7,161.2,828.6,161.2z"/>
		<path class="st4" d="M848,179.5v-35.8h21.7l-0.3,5.2h-14.8v9.2h14.1v5.2h-14.1v10.8h15.3l-0.2,5.3L848,179.5z"/>
		<path class="st4" d="M876,179.5v-35.9h13.2c1.6,0,3.1,0.1,4.7,0.2c1.3,0.2,2.6,0.5,3.8,0.9c1.1,0.4,2.1,1,2.9,1.8
			c0.8,0.8,1.4,1.8,1.8,2.9c0.5,1.3,0.7,2.8,0.7,4.2c0,4.8-2.2,7.9-6.5,9.4c1.3,1.7,2.4,3.6,3.3,5.5l5.3,11h-7.2l-4.2-9.4
			c-1.6-3.4-2.5-5.3-2.9-5.9c-0.3,0-1.2,0-2.8,0l-5.5-0.1v15.4H876z M889.8,159.4c2.5,0,4.4-0.5,5.5-1.4c1.2-1.1,1.8-2.7,1.7-4.4
			c0.1-1.5-0.5-2.9-1.7-3.9c-1.5-0.9-3.3-1.4-5.2-1.2h-7.6v10.8h3.6L889.8,159.4z"/>
		<path class="st4" d="M917.1,179.5v-30.5h-10.4v-5.3h27.4v5.3h-10.4v30.5H917.1z"/>
		<path class="st4" d="M946.4,179.5v-14.2L934,143.8h7.2l8.5,15.5l8.6-15.5h7.1l-12.3,21.5v14.3H946.4z"/>
		<path class="st4" d="M769.3,227.5v-35.8h7c1.3,2,3.9,6,7.7,12s6.3,9.7,7.1,11c0.2,0.4,0.7,1,1.2,1.9s1,1.5,1.3,1.9
			c-0.1-5.6-0.2-8.5-0.2-8.7v-18.1h6v35.8h-7.1l-16.1-25.1l-1.2-1.9c0.1,4.3,0.2,7.3,0.2,9.1v18L769.3,227.5z"/>
		<path class="st4" d="M803.3,227.5l13.2-35.8h7.2l13,35.8h-6.8l-3.5-10.1h-12.6l-3.6,10.1L803.3,227.5z M815.4,212.5h9.2
			c-2.9-9.4-4.4-14.2-4.5-14.6L815.4,212.5z"/>
		<path class="st4" d="M840.2,227.5v-35.8h7.8l10.8,25.8l10.9-25.8h7.7v35.8h-6.1v-17.7l0.2-10.1l-0.9,2.7l-9.2,22.7h-5.7l-9-22.8
			l-0.9-2.7l0.2,10.4v17.6L840.2,227.5z"/>
		<path class="st4" d="M885.1,227.5v-35.8h21.7l-0.3,5.2h-14.8v9.2h14.1v5.2h-14.1v10.8h15.3l-0.2,5.3L885.1,227.5z"/>
		<path class="st4" d="M1042.1,180.3l13.2-35.8h7.2l13,35.8h-6.8l-3.5-10.1h-12.5l-3.6,10.1L1042.1,180.3z M1054.2,165.3h9.2
			c-2.9-9.4-4.4-14.2-4.5-14.6L1054.2,165.3z"/>
		<path class="st4" d="M1089.2,180.8c-4.1,0.1-8.1-1-11.6-3l1.6-5.2c1.6,0.9,3.3,1.6,5,2.1c1.7,0.5,3.5,0.8,5.3,0.8
			c1.7,0.1,3.4-0.4,4.8-1.4c1.1-1,1.7-2.4,1.6-3.9c0-2.2-1.5-3.8-4.5-4.7l-1.8-0.5l-2.8-0.8c-0.8-0.3-1.5-0.5-1.8-0.6
			c-4.8-1.7-7.2-4.8-7.2-9.5c-0.2-2.9,1.1-5.7,3.4-7.5c2.3-1.8,5.4-2.6,9.2-2.6c3.9-0.1,7.7,0.8,11.2,2.7l-2,4.8
			c-2.8-1.3-5.8-2.1-8.9-2.1c-1.6-0.1-3.1,0.2-4.5,1c-1.1,0.8-1.7,2.1-1.6,3.5c-0.1,1.9,1.2,3.5,3,3.9c0.4,0.1,1.3,0.5,2.9,0.9l3,1
			c3.3,1.1,5.6,2.4,7,4c1.5,1.9,2.3,4.3,2.1,6.7c0.1,3-1.2,6-3.6,7.8C1096.6,179.9,1093.3,180.8,1089.2,180.8L1089.2,180.8z"/>
		<path class="st4" d="M1118.2,180.8c-4.1,0.1-8.1-1-11.6-3l1.6-5.2c1.6,0.9,3.3,1.6,5,2.1c1.7,0.5,3.5,0.8,5.3,0.8
			c1.7,0.1,3.4-0.4,4.8-1.4c1.1-1,1.7-2.4,1.6-3.9c0-2.2-1.5-3.8-4.5-4.7l-1.8-0.5l-2.8-0.8c-0.9-0.3-1.5-0.5-1.8-0.6
			c-4.8-1.7-7.2-4.8-7.2-9.5c-0.2-2.9,1.1-5.7,3.5-7.5c2.3-1.8,5.4-2.6,9.2-2.6c3.9-0.1,7.7,0.8,11.2,2.7l-2,4.8
			c-2.8-1.3-5.8-2.1-8.9-2.1c-1.5-0.1-3.1,0.2-4.4,1c-1.1,0.8-1.7,2.1-1.6,3.5c-0.1,1.8,1.1,3.5,2.9,3.9c0.4,0.1,1.3,0.5,2.9,0.9
			l3,1c3.3,1.1,5.6,2.4,7,4c1.5,1.9,2.3,4.3,2.1,6.7c0.2,3-1.2,6-3.6,7.8C1125.6,179.9,1122.3,180.8,1118.2,180.8L1118.2,180.8z"/>
		<path class="st4" d="M1137.4,180.3v-35.8h6.6v35.8H1137.4z"/>
		<path class="st4" d="M1167.9,180.8c-5.5,0-9.7-1.6-12.8-4.9s-4.6-7.8-4.6-13.5c-0.1-3.3,0.7-6.6,2.2-9.6c1.4-2.7,3.6-5,6.3-6.5
			c3-1.6,6.4-2.4,9.9-2.3c3.9-0.1,7.8,0.9,11.2,2.8l-2.2,4.9c-2.7-1.5-5.8-2.4-8.9-2.4c-3.2-0.2-6.3,1.1-8.5,3.5
			c-2.1,2.3-3.1,5.5-3.1,9.6c0,4,0.9,7.2,2.8,9.5c1.8,2.3,4.5,3.5,8.1,3.5c2.1,0,4.2-0.3,6.2-1.1v-8.3h-7.5v-5.2h13.7v17.3
			c-2,0.8-4.1,1.5-6.3,2C1172.2,180.6,1170.1,180.8,1167.9,180.8L1167.9,180.8z"/>
		<path class="st4" d="M1187.7,180.3v-35.8h7c1.3,2,3.8,6,7.7,12s6.3,9.7,7.1,11c0.2,0.4,0.7,1,1.2,1.9s1,1.5,1.3,1.9
			c-0.1-5.6-0.2-8.5-0.2-8.7v-18.1h6v35.8h-7.1l-16.1-25.1l-1.2-1.9c0.1,4.3,0.2,7.3,0.2,9.1v18L1187.7,180.3z"/>
		<path class="st4" d="M1225.7,180.3v-35.8h7.8l10.8,25.8l10.9-25.8h7.7v35.8h-6.1v-17.7l0.2-10.1l-0.9,2.7l-9.2,22.7h-5.7l-9-22.8
			l-0.9-2.7l0.2,10.4v17.6L1225.7,180.3z"/>
		<path class="st4" d="M1270.6,180.3v-35.8h21.7l-0.3,5.2h-14.8v9.2h14.1v5.2h-14.1V175h15.3l-0.2,5.3L1270.6,180.3z"/>
		<path class="st4" d="M1298.7,180.3v-35.8h7c1.3,2,3.8,6,7.7,12s6.3,9.7,7.1,11c0.2,0.4,0.7,1,1.3,1.9c0.6,0.9,1,1.5,1.2,1.9
			c-0.1-5.6-0.2-8.5-0.2-8.7v-18.1h6v35.8h-7.1l-16.1-25.1l-1.2-1.9c0.1,4.3,0.2,7.3,0.2,9.1v18L1298.7,180.3z"/>
		<path class="st4" d="M1343.6,180.3v-30.5h-10.4v-5.3h27.4v5.3h-10.4v30.5H1343.6z"/>
		<path class="st4" d="M1088.9,228.8c-5.4,0-9.6-1.6-12.8-4.9c-3.1-3.3-4.7-7.8-4.7-13.5c0-5.8,1.6-10.3,4.7-13.5
			c3.1-3.2,7.4-4.9,12.8-4.9c5.4,0,9.6,1.6,12.8,4.9c3.1,3.2,4.7,7.8,4.7,13.5c0,5.7-1.6,10.2-4.7,13.5
			C1098.5,227.2,1094.3,228.8,1088.9,228.8L1088.9,228.8z M1081.1,220c1.8,2.3,4.4,3.4,7.9,3.4c3.5,0,6.1-1.1,7.8-3.4
			s2.7-5.4,2.7-9.6s-0.9-7.4-2.7-9.7s-4.4-3.4-7.8-3.4s-6.1,1.1-7.9,3.5s-2.7,5.5-2.7,9.7S1079.3,217.8,1081.1,220L1081.1,220z"/>
		<path class="st4" d="M1112.4,228.3v-35.9h11.9c2.5-0.1,4.9,0.3,7.2,1.1c1.9,0.7,3.6,1.9,4.8,3.5c1.2,1.8,1.8,4,1.8,6.1
			c0,1.5-0.2,3.1-0.7,4.6c-1,3-3.4,5.3-6.4,6.1c-2.1,0.6-4.4,0.9-6.6,0.9c-2.2,0-4-0.1-5.4-0.2v13.8L1112.4,228.3z M1123.7,209.9
			c1.2,0,2.4-0.1,3.5-0.4c0.8-0.2,1.6-0.5,2.3-1c0.6-0.4,1-0.9,1.3-1.5c0.3-0.5,0.5-1.1,0.7-1.8c0.1-0.6,0.2-1.3,0.2-1.9
			c0.1-1.7-0.6-3.4-1.9-4.5c-1.6-1.1-3.5-1.7-5.4-1.5h-5.4v12.5C1119.2,209.9,1120.7,209.9,1123.7,209.9L1123.7,209.9z"/>
		<path class="st4" d="M1143,228.3v-35.8h21.7l-0.3,5.2h-14.8v9.2h14.1v5.2h-14.1V223h15.4l-0.2,5.3L1143,228.3z"/>
		<path class="st4" d="M1171,228.3v-35.9h13.3c1.6,0,3.1,0.1,4.7,0.2c1.3,0.2,2.6,0.5,3.8,0.9c2.2,0.7,4,2.4,4.7,4.6
			c0.5,1.3,0.7,2.8,0.6,4.2c0,4.8-2.2,7.9-6.5,9.4c1.3,1.7,2.4,3.5,3.3,5.5l5.3,11h-7.2l-4.2-9.4c-1.6-3.3-2.6-5.3-2.9-6
			c-0.3,0-1.2,0-2.8,0l-5.5-0.1v15.4L1171,228.3z M1184.8,208.2c2.5,0,4.4-0.4,5.5-1.4c1.2-1.1,1.8-2.7,1.7-4.4
			c0.1-1.5-0.5-2.9-1.7-3.9c-1.5-0.9-3.3-1.4-5.2-1.2h-7.6v10.8L1184.8,208.2L1184.8,208.2z"/>
		<path class="st4" d="M1201.2,228.3l13.2-35.8h7.2l13,35.8h-6.8l-3.5-10.1h-12.5l-3.6,10.1L1201.2,228.3z M1213.4,213.3h9.2
			c-2.9-9.4-4.4-14.2-4.5-14.6L1213.4,213.3z"/>
		<path class="st4" d="M1243.1,228.3v-30.5h-10.4v-5.3h27.4v5.3h-10.4v30.5H1243.1z"/>
		<path class="st4" d="M1280.2,228.8c-5.4,0-9.6-1.6-12.8-4.9c-3.1-3.3-4.7-7.8-4.7-13.5c0-5.8,1.6-10.3,4.7-13.5
			c3.1-3.2,7.4-4.9,12.8-4.9c5.4,0,9.6,1.6,12.7,4.9c3.1,3.2,4.7,7.8,4.7,13.5c0,5.7-1.6,10.2-4.7,13.5S1285.5,228.8,1280.2,228.8
			L1280.2,228.8z M1272.3,220c1.8,2.3,4.4,3.4,7.9,3.4c3.5,0,6.1-1.1,7.8-3.4c1.8-2.3,2.6-5.4,2.6-9.6s-0.9-7.3-2.6-9.7
			c-1.8-2.3-4.4-3.4-7.8-3.4c-3.5,0-6.1,1.2-7.9,3.5c-1.8,2.3-2.7,5.5-2.7,9.7C1269.6,214.6,1270.5,217.8,1272.3,220L1272.3,220z"/>
		<path class="st4" d="M1303.7,228.3v-35.9h13.2c1.6,0,3.1,0.1,4.7,0.2c1.3,0.2,2.6,0.5,3.8,0.9c1.1,0.4,2.1,1,2.9,1.8
			c0.8,0.8,1.4,1.8,1.8,2.9c0.5,1.3,0.7,2.8,0.7,4.2c0,4.8-2.2,7.9-6.5,9.4c1.3,1.7,2.4,3.5,3.3,5.5l5.3,11h-7.2l-4.2-9.4
			c-1.6-3.3-2.6-5.3-2.9-6c-0.3,0-1.2,0-2.8,0l-5.5-0.1v15.4L1303.7,228.3z M1317.5,208.2c2.5,0,4.4-0.5,5.5-1.4
			c1.2-1.1,1.8-2.7,1.7-4.4c0.1-1.5-0.5-2.9-1.7-3.9c-1.5-0.9-3.3-1.4-5.2-1.2h-7.6v10.8L1317.5,208.2L1317.5,208.2z"/>
		<path class="st4" d="M1514.5,227.5l-13-35.8h6.8l7.6,22.1c0.3,0.8,1,3,2,6.7c0.1-0.3,0.4-1.3,0.9-3.2s0.9-3,1-3.4s1.4-4.2,3.7-11
			s3.5-10.5,3.7-11.1h6.8l-12.8,35.8L1514.5,227.5z"/>
		<path class="st4" d="M1531.2,227.5l13.2-35.8h7.2l13,35.8h-6.8l-3.5-10.1h-12.5l-3.6,10.1L1531.2,227.5z M1543.3,212.5h9.2
			c-2.9-9.4-4.4-14.2-4.5-14.6L1543.3,212.5z"/>
		<path class="st4" d="M1568.1,227.5v-35.8h6.6v30.5h15l-0.2,5.3L1568.1,227.5z"/>
		<path class="st4" d="M1608.2,228c-4.7,0-8.2-1.2-10.7-3.5s-3.7-5.6-3.6-9.9v-22.9h6.6v22.4c0,3,0.6,5.1,1.8,6.5s3.2,2.1,6,2.1
			s4.7-0.7,5.9-2.1s1.8-3.6,1.8-6.5v-22.3h6.6v23c0,4.2-1.2,7.5-3.7,9.8C1616.5,226.9,1612.9,228.1,1608.2,228L1608.2,228z"/>
		<path class="st4" d="M1630,227.5v-35.8h21.7l-0.3,5.2h-14.8v9.2h14.1v5.2h-14.1v10.8h15.4l-0.2,5.3L1630,227.5z"/>
	</g>
	<path class="st1" d="M157.4,585c-7.1,0-12.8-1.2-17.1-3.7l1.2-8.7c2.4,1.2,4.8,2.2,7.4,2.8c2.7,0.8,5.4,1.2,8.2,1.2
		c2.1,0.1,4.2-0.4,6-1.4c1.4-0.9,2.2-2.5,2.2-4.2c0.1-1.6-0.7-3.1-2-4c-2.4-1.5-5-2.7-7.6-3.6l-2.5-0.9c-4.4-1.7-7.7-3.7-9.6-5.8
		c-2.1-2.4-3.1-5.5-2.9-8.6c0-4.4,1.6-7.8,4.8-10.1c3.2-2.3,7.6-3.5,13.3-3.5c5.6-0.1,11.2,1.1,16.2,3.5l-2.9,8
		c-4.1-2-8.6-3.1-13.1-3.2c-1.9-0.1-3.7,0.3-5.4,1.2c-1.3,0.7-2.1,2.1-2,3.5c0,1.4,0.7,2.7,1.9,3.5c2.3,1.3,4.8,2.4,7.4,3.3
		c0.1,0,0.5,0.2,1.1,0.4l1.5,0.6c4.4,1.6,7.7,3.5,9.8,5.8c2.1,2.4,3.3,5.6,3.1,8.8c0,4.8-1.6,8.6-4.9,11.2
		C168,583.7,163.4,585,157.4,585z"/>
	<path class="st1" d="M188,604.2v-68.4h9.9l1.2,6.8c1.5-2.5,3.7-4.5,6.3-5.9c2.7-1.4,5.7-2.1,8.8-2.1c3.7-0.1,7.4,1.1,10.4,3.3
		c3.1,2.3,5.4,5.4,6.8,9c1.6,4.1,2.4,8.5,2.3,12.8c0,7.5-1.8,13.6-5.4,18.3c-3.4,4.6-8.9,7.3-14.7,7.1c-2.9,0-5.7-0.6-8.3-1.8
		c-2.4-1.2-4.5-2.9-6.2-4.9c0.2,4.2,0.3,6.6,0.4,7.1v18.2L188,604.2z M211.2,576.2c3.3,0.1,6.3-1.6,8.1-4.3c2-2.9,3-7,3-12.3
		c0-5.3-1-9.4-3-12.2c-1.9-2.7-5-4.2-8.3-4.1c-7.6,0-11.5,5.2-11.6,15.6c0,6,1,10.4,3,13.2C204.5,574.8,207.4,576.2,211.2,576.2
		L211.2,576.2z"/>
	<path class="st1" d="M258.5,585c-4.5,0-8.1-1.2-10.9-3.7c-2.8-2.5-4.2-6-4.1-10.7c0-5,1.6-8.7,4.9-11.1c3.3-2.4,8.2-4,14.8-4.6
		c0.9-0.1,1.9-0.2,3-0.3s2.2-0.2,3.6-0.3s2.4-0.2,3.1-0.3v-2.5c0-2.9-0.7-5.1-2-6.4s-3.4-2-6.2-2c-3.9,0-8.8,1.1-14.5,3.3
		c0-0.1-0.5-1.4-1.4-4s-1.4-3.9-1.4-4c5.8-2.5,12.1-3.7,18.5-3.7c6.5,0,11.2,1.4,14.2,4.2s4.4,7.4,4.4,13.7V584h-8.5
		c0-0.1-0.4-1.1-1-2.9s-0.9-2.8-0.9-3c-2,2.1-4.4,3.8-7,5.2C264.2,584.5,261.4,585.1,258.5,585L258.5,585z M261.6,576.8
		c2.5,0.1,4.9-0.6,7-1.9c1.8-1.1,3.3-2.7,4.2-4.6V561l-2.3,0.2l-2.4,0.2c-4.7,0.4-8.1,1.3-10.2,2.6c-2.2,1.4-3.2,3.5-3.3,6.5
		c-0.1,1.8,0.6,3.5,1.8,4.7C257.9,576.4,259.8,577,261.6,576.8L261.6,576.8z"/>
	<path class="st1" d="M319.8,585c-7.4,0-13.1-2.2-17.2-6.6s-6.2-10.7-6.2-18.8c0-7.9,2.2-14,6.5-18.4s10-6.5,17.1-6.5
		c5-0.2,10,1.1,14.3,3.7l-2.7,8.2c-3.4-1.9-7.2-3-11.1-3.1c-3.6-0.2-7,1.4-9.2,4.2c-2.2,2.8-3.4,6.8-3.4,12.2s1.1,9.4,3.3,12.3
		c2.3,2.8,5.8,4.4,9.4,4.2c4.3,0,8.6-1.3,12.2-3.7l1.1,8.8c-1.9,1.3-4,2.3-6.3,2.9C325,584.8,322.4,585,319.8,585L319.8,585z"/>
	<path class="st1" d="M367.6,585c-7.8,0-13.8-2.2-18.1-6.7c-4.3-4.5-6.5-10.6-6.5-18.5c0-7.7,2-13.8,6.1-18.3s9.6-6.8,16.6-6.9
		c6.7,0,11.8,2.1,15.5,6.2c3.7,4.2,5.5,9.7,5.5,16.6v2.4c0,0,0,1.9,0,2.5h-32.2c0.1,4.5,1.4,8,3.7,10.5s5.6,3.7,9.7,3.7
		c5.3,0,10.6-1.4,15.2-4.1l1.6,8.2C379.6,583.6,373.7,585.2,367.6,585L367.6,585z M354.8,555h21.1c0-3.9-0.9-6.9-2.7-9
		c-1.9-2.1-4.6-3.3-7.4-3.2c-2.8-0.1-5.5,1.1-7.5,3.1C356.3,548,355.1,551,354.8,555L354.8,555z"/>
	<path class="st1" d="M414.2,585c-7.1,0-12.8-1.2-17.1-3.7l1.2-8.7c2.3,1.2,4.8,2.2,7.4,2.8c2.7,0.8,5.4,1.2,8.2,1.2
		c2.1,0.1,4.2-0.4,6-1.4c1.4-0.9,2.2-2.5,2.2-4.2c0.1-1.6-0.7-3.1-2-4c-2.4-1.5-5-2.7-7.6-3.6l-2.5-0.9c-4.4-1.7-7.7-3.7-9.6-5.8
		c-2.1-2.4-3.1-5.5-3-8.6c0-4.4,1.6-7.8,4.8-10.1s7.6-3.5,13.3-3.5c5.6-0.1,11.2,1.1,16.2,3.5l-2.9,8c-4.1-2-8.6-3.1-13.1-3.2
		c-1.9-0.1-3.8,0.3-5.4,1.2c-1.3,0.7-2.1,2.1-2,3.5c0,1.4,0.7,2.7,1.9,3.4c2.3,1.3,4.8,2.4,7.4,3.3l1.1,0.4l1.5,0.6
		c4.4,1.6,7.7,3.5,9.8,5.8c2.1,2.4,3.3,5.6,3.1,8.8c0,4.8-1.6,8.6-4.9,11.2S420.2,585,414.2,585z"/>
	<path class="st1" d="M444.8,584.1V518l11.5-0.8v14c0,0.7,0,2.5-0.1,5.6s-0.1,4.6-0.1,4.7c3.8-4.6,9-6.9,15.5-6.9
		c5.4,0,9.6,1.5,12.5,4.6c3,3.1,4.5,7.8,4.5,14.3v30.6H477v-29.3c0-3.9-0.6-6.8-1.9-8.7c-1.3-1.9-3.4-2.8-6.4-2.8
		c-2.4,0-4.8,0.7-6.9,2c-1.9,1.2-3.5,3-4.5,5c-0.8,3.5-1.1,7-1,10.5v23.2L444.8,584.1z"/>
	<path class="st1" d="M502.8,528.8v-9.8h11.6v9.8H502.8z M502.8,584.1v-48.3h11.5v48.3H502.8z"/>
	<path class="st1" d="M529,604.2v-68.4h9.9l1.2,6.8c1.5-2.5,3.7-4.5,6.3-5.9c2.7-1.4,5.7-2.1,8.8-2.1c3.7-0.1,7.4,1.1,10.4,3.3
		c3.1,2.3,5.4,5.4,6.8,9c1.6,4.1,2.4,8.5,2.3,12.8c0,7.5-1.8,13.6-5.4,18.3c-3.5,4.6-8.9,7.2-14.7,7c-2.9,0-5.7-0.6-8.3-1.8
		c-2.4-1.2-4.5-2.9-6.2-4.9c0.2,4.2,0.4,6.6,0.4,7.1v18.2L529,604.2z M552.2,576.2c3.3,0.1,6.3-1.6,8.1-4.3c2-2.9,3-7,3-12.3
		c0-5.3-1-9.4-3-12.2c-1.9-2.7-5-4.2-8.3-4.1c-7.6,0-11.5,5.2-11.6,15.6c0,6,1,10.4,3,13.2S548.4,576.2,552.2,576.2L552.2,576.2z"/>
	<path class="st2" d="M591.8,584.9c-1.8,0-3.6-0.7-4.8-2c-1.3-1.2-2-2.9-2-4.7c0-1.8,0.7-3.5,2-4.8c1.3-1.3,3-2,4.9-2
		c1.8,0,3.5,0.7,4.8,2c1.3,1.3,2,3,1.9,4.8c0,1.8-0.7,3.5-1.9,4.7C595.4,584.2,593.7,584.9,591.8,584.9L591.8,584.9z"/>
	<path class="st3" d="M631.5,585c-7.4,0-13.1-2.2-17.2-6.6s-6.2-10.7-6.2-18.8c0-7.9,2.2-14,6.5-18.4s10-6.5,17.1-6.5
		c5-0.1,10,1.1,14.3,3.7l-2.7,8.2c-3.4-1.9-7.2-3-11.1-3.1c-3.6-0.2-7,1.4-9.2,4.2c-2.2,2.8-3.4,6.8-3.4,12.2
		c0,5.3,1.1,9.4,3.3,12.3c2.3,2.8,5.8,4.4,9.4,4.2c4.3,0,8.6-1.3,12.2-3.7l1.1,8.8c-1.9,1.3-4,2.3-6.3,2.9
		C636.8,584.8,634.2,585,631.5,585L631.5,585z"/>
	<path class="st3" d="M677.8,585c-7.1,0-12.8-2.3-16.9-7c-4.1-4.6-6.2-10.7-6.2-18.3c0-7.8,2.1-13.9,6.2-18.4
		c4.1-4.5,9.9-6.8,17.4-6.8c7.2,0,12.8,2.3,16.9,6.9s6.1,10.7,6.1,18.3c0,7.7-2.1,13.8-6.2,18.4C691,582.7,685.2,585,677.8,585z
		 M678.1,576.2c3.9,0,6.8-1.4,8.8-4.3c2-2.8,2.9-6.9,2.9-12.2c0-5.3-1-9.4-2.9-12.3c-2-2.8-4.9-4.2-8.9-4.2c-3.9,0-6.8,1.4-8.8,4.2
		s-3,6.9-3,12.3c0,5.3,1,9.3,3,12.2C671.2,574.9,674.2,576.3,678.1,576.2L678.1,576.2z"/>
	<path class="st3" d="M730.4,584.8c-2.8,0.1-5.6-0.3-8.2-1.2c-2.1-0.7-3.9-2-5.2-3.7c-1.3-1.8-2.2-3.9-2.6-6.1
		c-0.5-2.9-0.8-5.8-0.8-8.8V518l11.5-0.8v47.6c0,4.3,0.5,7.3,1.5,8.8c1,1.5,3,2.3,6,2.3c1.9,0,3.7-0.2,5.6-0.5l0.3,8.2l-1.1,0.2
		c-0.7,0.1-1.3,0.3-2,0.4s-1.4,0.2-2.4,0.3C732.2,584.7,731.3,584.8,730.4,584.8L730.4,584.8z"/>
	<path class="st3" d="M767.4,585c-7.2,0-12.8-2.3-16.9-7c-4.1-4.6-6.1-10.7-6.2-18.3c0-7.8,2.1-13.9,6.2-18.4s9.9-6.8,17.3-6.8
		c7.2,0,12.9,2.3,17,6.9s6.2,10.7,6.1,18.3c0,7.7-2.1,13.8-6.2,18.4C780.7,582.7,774.9,585,767.4,585z M767.7,576.2
		c3.9,0,6.8-1.4,8.8-4.3s2.9-6.9,2.9-12.2c0-5.3-1-9.4-2.9-12.3c-2-2.8-4.9-4.2-8.9-4.2s-6.8,1.4-8.8,4.2s-3,6.9-3,12.3
		s1,9.3,3,12.2S763.8,576.3,767.7,576.2L767.7,576.2z"/>
	<path class="st3" d="M803.1,584.1v-48.3h9.7l1.5,7.4c2.8-4.9,8.1-7.8,13.7-7.6c1,0,2.1,0,3.1,0.2l-0.2,9.6
		c-1.2-0.2-2.4-0.3-3.7-0.3c-4.2,0-7.4,1.1-9.5,3.4s-3.1,5.4-3.1,9.4v26.2L803.1,584.1z"/>
	<path class="st2" d="M865.5,551v-8.5h44.7v8.5H865.5z M865.5,568.4V560h44.7v8.4L865.5,568.4z"/>
	<path class="st2" d="M960.4,519.7l-4.8,21.7h-9.6l7-21.7H960.4z"/>
	<path class="st2" d="M981.1,605.7l-0.7-9.3h5.8c6.8,0,11.5-0.9,14.2-2.7s4-5.1,4-9.9c0-2-0.1-4.1-0.3-6.4c-0.7,0.9-1.4,1.8-2.2,2.6
		c-0.8,0.8-1.7,1.4-2.6,2c-1.1,0.7-2.4,1.2-3.7,1.5c-1.6,0.4-3.3,0.5-5,0.5c-6,0.2-11.8-2.4-15.8-6.9c-4.1-4.6-6.2-10.5-6.2-17.8
		c0-3.6,0.5-7.2,1.7-10.6c1-2.9,2.6-5.6,4.7-7.8c3.9-4.1,9.3-6.4,15-6.4c6.5,0,11.3,2.4,14.5,7.1l0.8-5.9h10.3v44.9
		c0,2.2-0.1,4.3-0.3,6.5c-0.2,1.9-0.6,3.7-1.2,5.5c-0.5,1.7-1.3,3.2-2.3,4.6c-1,1.4-2.2,2.6-3.6,3.6c-1.5,1.1-3.3,2-5.1,2.7
		c-2.2,0.8-4.5,1.3-6.8,1.6c-2.9,0.4-5.8,0.6-8.7,0.5L981.1,605.7z M992.7,576.1c7.9,0,11.9-5.3,12-16v-1.7c-0.1-4.8-1.1-8.5-3-11.1
		s-4.8-3.9-8.5-4c-4.2,0-7.4,1.4-9.6,4.3c-2.2,2.9-3.2,6.8-3.2,11.7c-0.1,4.2,1,8.3,3.3,11.9C985.5,574.3,989,576.2,992.7,576.1z"/>
	<path class="st2" d="M1050.5,585c-7.1,0-12.8-2.3-16.9-7c-4.1-4.6-6.2-10.7-6.2-18.3c0-7.8,2-13.9,6.2-18.4
		c4.1-4.5,9.9-6.8,17.4-6.8c7.2,0,12.8,2.3,16.9,6.9s6.1,10.7,6.1,18.3c0,7.7-2.1,13.8-6.2,18.4C1063.8,582.7,1058,585,1050.5,585z
		 M1050.9,576.2c3.9,0,6.8-1.4,8.8-4.3s2.9-6.9,2.9-12.2c0-5.3-1-9.4-2.9-12.3s-4.9-4.2-8.9-4.2c-3.9,0-6.8,1.4-8.8,4.2
		c-2,2.8-3,6.9-3,12.3c0,5.3,1,9.3,3,12.2C1044,574.8,1046.9,576.3,1050.9,576.2L1050.9,576.2z"/>
	<path class="st2" d="M1103.1,584.8c-2.8,0.1-5.6-0.3-8.2-1.2c-2.1-0.7-3.9-2-5.2-3.7c-1.3-1.8-2.2-3.9-2.6-6.1
		c-0.5-2.9-0.8-5.8-0.7-8.8V518l11.5-0.8v47.6c0,4.3,0.5,7.3,1.5,8.8c1,1.5,3,2.3,6,2.3c1.9,0,3.7-0.2,5.6-0.5l0.3,8.2
		c0,0-0.4,0.1-1.1,0.2s-1.3,0.3-2,0.4s-1.4,0.2-2.4,0.3C1104.9,584.7,1104,584.8,1103.1,584.8L1103.1,584.8z"/>
	<path class="st2" d="M1137.4,585c-6.3,0-11.3-2.3-14.9-7c-3.6-4.6-5.4-10.8-5.4-18.5c0-7.5,1.8-13.5,5.4-18.1
		c3.6-4.6,8.5-6.8,14.8-6.8c6.9,0,11.7,2.4,14.6,7.3c-0.3-2.8-0.4-5.5-0.4-8.3V518l11.5-0.8v66.8h-10l-1.3-6.6c-0.5,0.8-1,1.5-1.4,2
		c-0.6,0.7-1.2,1.4-1.9,2c-0.8,0.7-1.7,1.3-2.7,1.8c-1.2,0.5-2.4,0.9-3.6,1.2C1140.6,584.8,1139,585,1137.4,585L1137.4,585z
		 M1140.1,576.2c7.7,0,11.7-5.3,11.8-15.8c0-5.9-1-10.3-3-13s-5-4.1-8.9-4.1c-3.3-0.1-6.4,1.5-8.3,4.2c-2.1,2.8-3.1,6.8-3.1,12.2
		s1,9.5,3.1,12.3C1133.6,574.8,1136.8,576.4,1140.1,576.2L1140.1,576.2z"/>
	<path class="st2" d="M1174.2,541.3l4.8-21.7h9.6l-7,21.7H1174.2z"/>
	<path class="st2" d="M1198.4,598.3l2.5-25h9.9l-5.4,25H1198.4z M1199.2,547.2v-11.6h11.6v11.6H1199.2z"/>
	<path class="st4" d="M573.9,338.7h-3v-45.5h-426v45.5h-3v-48.5h432V338.7z"/>
	<path class="st4" d="M1114.6,338.7h-3v-45.5H646v45.5h-3v-48.5h471.6V338.7z"/>
	<path class="st4" d="M1226.8,338.7h-3v-45.5h-47.1v45.5h-3v-48.5h53.1V338.7z"/>
	<path class="st4" d="M1900.3,338.7h-3v-45.5h-638.9v45.5h-3v-48.5h644.9V338.7z"/>
	<path class="st4" d="M356.4,244.2h3v47.5h-3V244.2z"/>
	<path class="st4" d="M836.1,244.2h3v47.5h-3V244.2z"/>
	<path class="st4" d="M1198.8,244.2h3v47.5h-3V244.2z"/>
	<path class="st4" d="M1576.4,244.2h3v47.5h-3V244.2z"/>
</g>
</svg>
